<?xml version="1.0" standalone="no"?>
<!DOCTYPE svg PUBLIC "-//W3C//DTD SVG 1.1//EN" "http://www.w3.org/Graphics/SVG/1.1/DTD/svg11.dtd">
<!--Generator: Xara Designer (www.xara.com), SVG filter version: 6.6.0.1-->
<svg fill="none" fill-rule="evenodd" stroke="black" stroke-width="0.501" stroke-linejoin="bevel" stroke-miterlimit="10" font-family="Times New Roman" font-size="16" style="font-variant-ligatures:none" xmlns:xlink="http://www.w3.org/1999/xlink" xmlns="http://www.w3.org/2000/svg" version="1.1" overflow="visible" width="47.508pt" height="64.12pt" viewBox="354.819 -397.939 47.508 64.12">
 <defs>
	</defs>
 <g id="Layer 1" transform="scale(1 -1)">
  <path d="M 402.327,387.932 L 402.327,397.939 C 401.023,393.516 394.872,390.937 391.13,389.236 C 387.814,387.734 379.48,383.567 378.573,379.06 C 377.637,383.567 369.304,387.734 365.987,389.236 C 362.274,390.937 356.094,393.516 354.819,397.939 L 354.819,371.548 L 354.819,371.406 L 354.819,371.435 L 354.819,355.164 C 354.819,342.436 373.839,343.882 378.488,333.989 L 378.573,333.819 L 378.658,333.989 C 383.307,343.882 402.327,342.436 402.327,355.164 L 402.327,365.142 C 401.023,360.72 394.872,358.14 391.13,356.439 C 388.041,355.05 380.67,351.394 378.885,347.255 C 381.918,362.449 402.327,359.642 402.327,371.548 L 402.327,381.526 C 401.023,377.104 394.872,374.524 391.13,372.852 C 388.041,371.463 380.67,367.778 378.885,363.668 C 381.918,378.861 402.327,376.027 402.327,387.932 Z" fill="#ffffff" stroke="none" stroke-width="0.028" fill-rule="nonzero" stroke-linejoin="miter" marker-start="none" marker-end="none"/>
 </g>
</svg>
