<?xml version="1.0" standalone="no"?>
<!DOCTYPE svg PUBLIC "-//W3C//DTD SVG 1.1//EN" "http://www.w3.org/Graphics/SVG/1.1/DTD/svg11.dtd">
<!--Generator: Xara Designer (www.xara.com), SVG filter version: 6.5.0.22-->
<svg fill="none" fill-rule="evenodd" stroke="black" stroke-width="0.501" stroke-linejoin="bevel" stroke-miterlimit="10" font-family="Times New Roman" font-size="16" style="font-variant-ligatures:none" xmlns:xlink="http://www.w3.org/1999/xlink" xmlns="http://www.w3.org/2000/svg" version="1.1" overflow="visible" width="38.72pt" height="53.556pt" viewBox="864.256 -239.654 38.72 53.556">
 <defs>
	</defs>
 <g id="Capa 1" transform="scale(1 -1)">
  <g id="Group" fill-rule="nonzero" stroke-linejoin="miter" stroke="none" stroke-width="0.097">
   <path d="M 881.389,190.454 C 874.15,191.532 868.598,197.774 868.598,205.312 C 868.598,205.329 868.598,205.345 868.598,205.361 L 868.598,220.436 L 881.389,220.436 L 881.389,224.7 L 868.598,224.7 L 868.598,228.965 L 881.389,228.965 L 881.389,233.192 L 868.598,233.192 L 868.598,233.206 L 864.256,233.206 L 864.256,205.382 L 864.256,205.377 C 864.256,205.367 864.256,205.357 864.256,205.346 C 864.256,195.408 871.746,187.22 881.389,186.117 L 881.389,190.454 Z" fill="#ffffff" marker-start="none" marker-end="none"/>
   <path d="M 902.945,233.206 L 902.945,233.238 L 885.666,233.238 L 885.666,228.965 L 898.635,228.965 L 898.635,204.728 C 898.354,197.384 892.801,191.391 885.652,190.425 L 885.652,186.098 C 895.382,187.118 902.966,195.346 902.966,205.346 C 902.966,205.437 902.966,205.526 902.967,205.615 L 902.976,205.876 L 902.976,233.206 L 902.945,233.206 Z" fill="#ffffff" marker-start="none" marker-end="none"/>
   <path d="M 894.33,211.794 C 894.33,210.62 893.378,209.668 892.204,209.668 C 891.029,209.668 890.078,210.62 890.078,211.794 C 890.078,212.968 891.029,213.92 892.204,213.92 C 893.378,213.92 894.33,212.968 894.33,211.794 Z" fill="#ffffff" marker-start="none" marker-end="none"/>
   <path d="M 885.686,207.557 L 885.686,203.261 L 889.693,203.259 C 888.805,200.744 886.414,198.938 883.595,198.938 C 880.022,198.938 877.125,201.835 877.125,205.409 C 877.125,208.975 880.01,211.867 883.574,211.878 L 885.686,211.878 L 885.686,216.153 L 883.566,216.152 C 877.645,216.136 872.851,211.333 872.851,205.409 C 872.851,199.475 877.661,194.664 883.595,194.664 C 889.431,194.664 894.17,199.319 894.325,205.117 L 894.343,207.557 L 885.686,207.557 Z" fill="#ffffff" marker-start="none" marker-end="none"/>
   <path d="M 902.911,237.542 C 902.911,236.376 901.965,235.43 900.799,235.43 C 899.633,235.43 898.688,236.376 898.688,237.542 C 898.688,238.709 899.633,239.654 900.799,239.654 C 901.965,239.654 902.911,238.709 902.911,237.542 Z" fill="#ffffff" marker-start="none" marker-end="none"/>
  </g>
 </g>
</svg>
