<svg id="eWG80gzQvfK1" xmlns="http://www.w3.org/2000/svg" xmlns:xlink="http://www.w3.org/1999/xlink" viewBox="0 -792 612 792" shape-rendering="geometricPrecision" text-rendering="geometricPrecision">
<style><![CDATA[
#eWG80gzQvfK3 {animation: eWG80gzQvfK3_c_o 1900ms linear infinite normal backwards}@keyframes eWG80gzQvfK3_c_o { 0% {opacity: 0} 36.842105% {opacity: 0} 52.631579% {opacity: 1} 100% {opacity: 1}} #eWG80gzQvfK4 {animation: eWG80gzQvfK4_c_o 1900ms linear infinite normal backwards}@keyframes eWG80gzQvfK4_c_o { 0% {opacity: 0} 52.631579% {opacity: 0} 68.421053% {opacity: 1} 100% {opacity: 1}} #eWG80gzQvfK5 {animation: eWG80gzQvfK5_c_o 1900ms linear infinite normal backwards}@keyframes eWG80gzQvfK5_c_o { 0% {opacity: 0} 68.421053% {opacity: 0} 78.947368% {opacity: 1} 100% {opacity: 1}} #eWG80gzQvfK7 {animation: eWG80gzQvfK7_c_o 1900ms linear infinite normal backwards}@keyframes eWG80gzQvfK7_c_o { 0% {opacity: 0} 26.315789% {opacity: 0} 36.842105% {opacity: 1} 100% {opacity: 1}} #eWG80gzQvfK8 {animation: eWG80gzQvfK8_c_o 1900ms linear infinite normal backwards}@keyframes eWG80gzQvfK8_c_o { 0% {opacity: 0} 15.789474% {opacity: 0} 26.315789% {opacity: 1} 100% {opacity: 1}} #eWG80gzQvfK9_to {animation: eWG80gzQvfK9_to__to 1900ms linear infinite normal backwards}@keyframes eWG80gzQvfK9_to__to { 0% {transform: translate(449.564987px,378.23999px)} 63.157895% {transform: translate(449.564987px,378.23999px)} 100% {transform: translate(449.564987px,241.23999px)}} #eWG80gzQvfK9 {animation: eWG80gzQvfK9_c_o 1900ms linear infinite normal backwards}@keyframes eWG80gzQvfK9_c_o { 0% {opacity: 0} 42.105263% {opacity: 1} 100% {opacity: 1}} #eWG80gzQvfK10 {animation: eWG80gzQvfK10_c_o 1900ms linear infinite normal backwards}@keyframes eWG80gzQvfK10_c_o { 0% {opacity: 0} 15.789474% {opacity: 1} 100% {opacity: 1}} #eWG80gzQvfK11_to {animation: eWG80gzQvfK11_to__to 1900ms linear infinite normal backwards}@keyframes eWG80gzQvfK11_to__to { 0% {transform: translate(447.703979px,574.063995px)} 63.157895% {transform: translate(447.703979px,574.063995px)} 100% {transform: translate(447.701527px,480.126997px)}} #eWG80gzQvfK11 {animation: eWG80gzQvfK11_c_o 1900ms linear infinite normal backwards}@keyframes eWG80gzQvfK11_c_o { 0% {opacity: 0} 42.105263% {opacity: 1} 100% {opacity: 1}}
]]></style>
<defs><linearGradient id="eWG80gzQvfK3-fill" x1="448.169" y1="386.939" x2="448.169" y2="15.697" spreadMethod="pad" gradientUnits="userSpaceOnUse" gradientTransform="translate(0 0)"><stop id="eWG80gzQvfK3-fill-0" offset="0%" stop-color="#00a0e3"/><stop id="eWG80gzQvfK3-fill-1" offset="100%" stop-color="#0066b0"/></linearGradient><linearGradient id="eWG80gzQvfK4-fill" x1="449.523" y1="582.413" x2="449.523" y2="173.97" spreadMethod="pad" gradientUnits="userSpaceOnUse" gradientTransform="translate(0 0)"><stop id="eWG80gzQvfK4-fill-0" offset="0%" stop-color="#00a0e3"/><stop id="eWG80gzQvfK4-fill-1" offset="100%" stop-color="#0066b0"/></linearGradient><linearGradient id="eWG80gzQvfK5-fill" x1="447.661" y1="778.238" x2="447.661" y2="369.793" spreadMethod="pad" gradientUnits="userSpaceOnUse" gradientTransform="translate(0 0)"><stop id="eWG80gzQvfK5-fill-0" offset="0%" stop-color="#00a0e3"/><stop id="eWG80gzQvfK5-fill-1" offset="100%" stop-color="#0066b0"/></linearGradient><linearGradient id="eWG80gzQvfK7-fill" x1="448.169" y1="386.939" x2="448.169" y2="15.697" spreadMethod="pad" gradientUnits="userSpaceOnUse" gradientTransform="translate(0 0)"><stop id="eWG80gzQvfK7-fill-0" offset="0%" stop-color="#00a0e3"/><stop id="eWG80gzQvfK7-fill-1" offset="100%" stop-color="#0066b0"/></linearGradient><linearGradient id="eWG80gzQvfK8-fill" x1="449.523" y1="582.413" x2="449.523" y2="173.97" spreadMethod="pad" gradientUnits="userSpaceOnUse" gradientTransform="translate(0 0)"><stop id="eWG80gzQvfK8-fill-0" offset="0%" stop-color="#00a0e3"/><stop id="eWG80gzQvfK8-fill-1" offset="100%" stop-color="#0066b0"/></linearGradient><linearGradient id="eWG80gzQvfK9-fill" x1="449.523" y1="582.413" x2="449.523" y2="173.97" spreadMethod="pad" gradientUnits="userSpaceOnUse" gradientTransform="translate(0 0)"><stop id="eWG80gzQvfK9-fill-0" offset="0%" stop-color="#00a0e3"/><stop id="eWG80gzQvfK9-fill-1" offset="100%" stop-color="#0066b0"/></linearGradient><linearGradient id="eWG80gzQvfK10-fill" x1="447.661" y1="778.238" x2="447.661" y2="369.793" spreadMethod="pad" gradientUnits="userSpaceOnUse" gradientTransform="translate(0 0)"><stop id="eWG80gzQvfK10-fill-0" offset="0%" stop-color="#00a0e3"/><stop id="eWG80gzQvfK10-fill-1" offset="100%" stop-color="#0066b0"/></linearGradient><linearGradient id="eWG80gzQvfK11-fill" x1="447.661" y1="778.238" x2="447.661" y2="369.793" spreadMethod="pad" gradientUnits="userSpaceOnUse" gradientTransform="translate(0 0)"><stop id="eWG80gzQvfK11-fill-0" offset="0%" stop-color="#00a0e3"/><stop id="eWG80gzQvfK11-fill-1" offset="100%" stop-color="#0066b0"/></linearGradient></defs><g transform="matrix(1 0 0-1 0 0)"><path id="eWG80gzQvfK3" d="M307.014,15.517C362.479,133.552,589.41,116.303,589.41,268.158v119.049c-15.558-52.759-88.948-83.542-133.595-103.836C418.961,266.8,331.018,223.179,309.72,173.797l-2.706-158.28Z" opacity="0" fill="url(#eWG80gzQvfK3-fill)" fill-rule="evenodd" stroke-width="0.5" stroke-linecap="round" stroke-linejoin="round" stroke-miterlimit="10"/><path id="eWG80gzQvfK4" d="M309.72,369.62v-195.823c36.189,181.278,279.69,147.788,279.69,289.84v119.046c-15.558-52.756-88.948-83.539-133.595-103.488-36.854-16.574-124.797-60.539-146.095-109.575Z" opacity="0" fill="url(#eWG80gzQvfK4-fill)" fill-rule="evenodd" stroke-width="0.5" stroke-linecap="round" stroke-linejoin="round" stroke-miterlimit="10"/><path id="eWG80gzQvfK5" d="M309.72,369.62c36.189,181.267,279.69,147.456,279.69,289.493v119.395c-15.558-52.77-88.948-83.539-133.595-103.837-39.564-17.919-138.995-67.635-149.817-121.407L309.72,369.62Z" opacity="0" fill="url(#eWG80gzQvfK5-fill)" fill-rule="evenodd" stroke-width="0.334" stroke-miterlimit="10"/></g><g transform="matrix(-.981882 0 0-1 606.455838 0)"><path id="eWG80gzQvfK7" d="M307.014,15.517C362.479,133.552,589.41,116.303,589.41,268.158v119.049c-15.558-52.759-88.948-83.542-133.595-103.836C418.961,266.8,331.018,223.179,309.72,173.797l-2.706-158.28Z" opacity="0" fill="url(#eWG80gzQvfK7-fill)" fill-rule="evenodd" stroke-width="0.5" stroke-linecap="round" stroke-linejoin="round" stroke-miterlimit="10"/><path id="eWG80gzQvfK8" d="M309.72,369.62v-195.823c36.189,181.278,279.69,147.788,279.69,289.84v119.046c-15.558-52.756-88.948-83.539-133.595-103.488-36.854-16.574-124.797-60.539-146.095-109.575Z" opacity="0" fill="url(#eWG80gzQvfK8-fill)" fill-rule="evenodd" stroke-width="0.5" stroke-linecap="round" stroke-linejoin="round" stroke-miterlimit="10"/><g id="eWG80gzQvfK9_to" transform="translate(449.564987,378.23999)"><path id="eWG80gzQvfK9" d="M309.72,369.62v-195.823c36.189,181.278,279.69,147.788,279.69,289.84v119.046c-15.558-52.756-88.948-83.539-133.595-103.488-36.854-16.574-124.797-60.539-146.095-109.575Z" transform="translate(-449.564987,-378.23999)" opacity="0" fill="url(#eWG80gzQvfK9-fill)" fill-rule="evenodd" stroke-width="0.5" stroke-linecap="round" stroke-linejoin="round" stroke-miterlimit="10"/></g><path id="eWG80gzQvfK10" d="M309.72,369.62c36.189,181.267,279.69,147.456,279.69,289.493v119.395c-15.558-52.77-88.948-83.539-133.595-103.837-39.564-17.919-138.995-67.635-149.817-121.407L309.72,369.62Z" opacity="0" fill="url(#eWG80gzQvfK10-fill)" fill-rule="evenodd" stroke-width="0.334" stroke-miterlimit="10"/><g id="eWG80gzQvfK11_to" transform="translate(447.703979,574.063995)"><path id="eWG80gzQvfK11" d="M309.72,369.62c36.189,181.267,279.69,147.456,279.69,289.493v119.395c-15.558-52.77-88.948-83.539-133.595-103.837-39.564-17.919-138.995-67.635-149.817-121.407L309.72,369.62Z" transform="translate(-447.703979,-574.063995)" opacity="0" fill="url(#eWG80gzQvfK11-fill)" fill-rule="evenodd" stroke-width="0.334" stroke-miterlimit="10"/></g></g></svg>
