<svg id="fgj" xmlns="http://www.w3.org/2000/svg" xmlns:xlink="http://www.w3.org/1999/xlink" viewBox="864.256 -239.654 38.72 53.556" shape-rendering="geometricPrecision" text-rendering="geometricPrecision">
<style><![CDATA[
#fgj-s-path2_to {animation: fgj-s-path2_to__to 1000ms linear infinite normal forwards}@keyframes fgj-s-path2_to__to { 0% {transform: translate(874.9935px,222.568001px)} 50% {transform: translate(892.24656px,222.568001px)} 100% {transform: translate(874.993501px,222.568001px)}} #fgj-s-g1_tr {animation: fgj-s-g1_tr__tr 1000ms linear infinite normal forwards}@keyframes fgj-s-g1_tr__tr { 0% {transform: translate(883.686432px,205.408501px) rotate(0deg)} 50% {transform: translate(883.686432px,205.408501px) rotate(182.301661deg)} 100% {transform: translate(883.686432px,205.408501px) rotate(359.780239deg)}} #fgj-s-path8_to {animation: fgj-s-path8_to__to 1000ms linear infinite normal forwards}@keyframes fgj-s-path8_to__to { 0% {transform: translate(899.785156px,236.368767px)} 50% {transform: translate(867.24012px,236.368767px)} 100% {transform: translate(899.785156px,236.229088px)}}
]]></style>
<g id="fgj-u-capa-1" transform="matrix(1 0 0-1 0 0)"><path id="fgj-s-path1" d="M868.614,233.188l-4.358.018v-27.824-.005c0-.01,0-.02,0-.031c0-9.938,7.49-18.126,17.133-19.229v4.337c-7.239,1.078-12.791,7.32-12.791,14.858c0,.017,0,.033,0,.049l.016,27.827Z" fill="#003764" fill-rule="evenodd" stroke-width="0.097" stroke-miterlimit="10"/><g id="fgj-s-path2_to" transform="translate(874.9935,222.568001)"><path id="fgj-s-path2" d="M868.598,220.436h12.791v4.264h-12.791v-4.264Z" transform="translate(-874.9935,-222.568001)" fill="#003764" fill-rule="evenodd" stroke-width="0.097" stroke-miterlimit="10"/></g><path id="fgj-s-path3" d="M868.598,228.965h12.791v4.227l-12.775-.004-.016-4.223Z" fill="#003764" fill-rule="evenodd" stroke-width="0.097" stroke-miterlimit="10"/><path id="fgj-s-path4" d="M898.635,228.965l.032,4.273h-13.001v-4.273h12.969Z" fill="#003864" fill-rule="evenodd" stroke-width="0.097" stroke-miterlimit="10"/><path id="fgj-s-path5" d="M898.635,204.728c-.281-7.344-5.834-13.337-12.983-14.303v-4.327c9.73,1.02,17.314,9.248,17.314,19.248c0,.091,0,.18.001.269l.009.261v27.33h-.031v.032h-4.278l-.032-28.51Z" fill="#003864" fill-rule="evenodd" stroke-width="0.097" stroke-miterlimit="10"/><g id="fgj-s-g1_tr" transform="translate(883.686432,205.408501) rotate(0)"><g id="fgj-s-g1" transform="translate(-883.686432,-205.4085)"><path id="fgj-s-path6" d="M894.33,211.794c0-1.174-.952-2.126-2.126-2.126-1.175,0-2.126.952-2.126,2.126s.951,2.126,2.126,2.126c1.174,0,2.126-.952,2.126-2.126Z" transform="translate(.089394 0)" fill="#003764" stroke-width="0.097" stroke-miterlimit="10"/><path id="fgj-s-path7" d="M885.686,207.557v-4.296l4.007-.002c-.888-2.515-3.279-4.321-6.098-4.321-3.573,0-6.47,2.897-6.47,6.471c0,3.566,2.885,6.458,6.449,6.469h2.112v4.275l-2.12-.001c-5.921-.016-10.715-4.819-10.715-10.743c0-5.934,4.81-10.745,10.744-10.745c5.836,0,10.575,4.655,10.73,10.453l.018,2.44h-8.657Z" transform="translate(.089394 0)" fill="#003764" stroke-width="0.097" stroke-miterlimit="10"/></g></g><g id="fgj-s-path8_to" transform="translate(899.785156,236.368767)"><path id="fgj-s-path8" d="M902.911,237.542c0-1.166-.946-2.112-2.112-2.112s-2.111.946-2.111,2.112c0,1.167.945,2.112,2.111,2.112s2.112-.945,2.112-2.112Z" transform="translate(-900.896995,-237.502954)" fill="#003764" stroke-width="0.097" stroke-miterlimit="10"/></g></g></svg>
