<?xml version="1.0" encoding="UTF-8" standalone="no"?>
<!--Generator: Xara Designer (www.xara.com), SVG filter version: 6.5.0.22-->

<svg
   fill="none"
   fill-rule="evenodd"
   stroke="#000000"
   stroke-width="0.501"
   stroke-linejoin="bevel"
   stroke-miterlimit="10"
   font-family="'Times New Roman'"
   font-size="16px"
   style="font-variant-ligatures:none"
   version="1.1"
   overflow="visible"
   width="92.474442pt"
   height="88.3815pt"
   viewBox="0 -841.891 92.474446 88.381501"
   id="svg101"
   sodipodi:docname="ven-cbp-fgj.svg"
   inkscape:version="1.2.2 (732a01da63, 2022-12-09)"
   inkscape:export-filename="ven.png"
   inkscape:export-xdpi="300"
   inkscape:export-ydpi="300"
   xmlns:inkscape="http://www.inkscape.org/namespaces/inkscape"
   xmlns:sodipodi="http://sodipodi.sourceforge.net/DTD/sodipodi-0.dtd"
   xmlns="http://www.w3.org/2000/svg"
   xmlns:svg="http://www.w3.org/2000/svg">
  <sodipodi:namedview
     id="namedview103"
     pagecolor="#ffffff"
     bordercolor="#000000"
     borderopacity="0.25"
     inkscape:showpageshadow="2"
     inkscape:pageopacity="0.0"
     inkscape:pagecheckerboard="0"
     inkscape:deskcolor="#d1d1d1"
     inkscape:document-units="pt"
     showgrid="false"
     inkscape:zoom="5.9081283"
     inkscape:cx="62.540957"
     inkscape:cy="53.06249"
     inkscape:window-width="1715"
     inkscape:window-height="1224"
     inkscape:window-x="5037"
     inkscape:window-y="490"
     inkscape:window-maximized="0"
     inkscape:current-layer="Layer 1" />
  <defs
     id="defs2" />
  <g
     id="Layer 1"
     transform="matrix(1,0,0,-1,1.7730543e-4,-2.8475073e-4)">
    <path
       d="m 40.528574,784.43613 c -2.004047,0.40945 -3.915493,1.02056 -5.717392,1.80779 0.945899,7.77032 5.086875,14.85412 11.384185,19.49174 6.325065,-4.62338 10.487165,-11.70423 11.454678,-19.47307 -5.200598,-2.2902 -11.13463,-3.04869 -17.121471,-1.82646 z"
       fill="#9fa0a4"
       marker-start="none"
       marker-end="none"
       id="path37"
       style="stroke:none;stroke-width:0.122812;stroke-linecap:round;stroke-linejoin:round"
       inkscape:export-filename="path37.png"
       inkscape:export-xdpi="96"
       inkscape:export-ydpi="96" />
    <path
       d="m 21.939008,754.4835 c -15.7044661,4.13213 -25.0968847,20.23205 -20.96499673,35.93652 2.20938843,8.3974 7.84105703,14.99019 15.00419173,18.67553 0.04249,-0.4011 0.09309,-0.80048 0.151304,-1.19766 1.436655,-9.79721 7.626873,-18.41149 16.590187,-22.84721 0.318083,-0.15769 0.639605,-0.30973 0.964565,-0.45637 l -0.03979,0.0179 c -0.311451,0.14123 -0.619709,0.28738 -0.924774,0.43844 -0.236782,-3.21375 0.03783,-6.52009 0.886211,-9.81268 1.765055,-6.84972 5.733357,-12.55164 10.950658,-16.54278 0.238501,-0.1825 0.479458,-0.36156 0.723117,-0.53669 -6.684904,-4.27534 -15.067808,-5.85175 -23.340672,-3.67503 z"
       fill="#ffd500"
       marker-start="none"
       marker-end="none"
       id="path39"
       style="stroke:none;stroke-width:0.122812;stroke-linecap:round;stroke-linejoin:round;fill:#b3b3b3" />
    <path
       d="m 47.907612,806.90336 c 2.423573,1.52336 5.119542,2.70334 8.038293,3.45519 6.407349,1.65109 12.870947,0.97882 18.497703,-1.48971 0.307521,-0.13509 0.612586,-0.27534 0.914949,-0.421 l 0.0066,-0.003 c -0.304574,0.14688 -0.611849,0.28812 -0.921581,0.42419 -0.09211,-0.75185 -0.214676,-1.50665 -0.369173,-2.26244 -1.769476,-8.66537 -7.313948,-15.60179 -14.568209,-19.44458 -1.148784,7.81698 -5.326112,14.93075 -11.598614,19.74154 z"
       fill="#696eea"
       marker-start="none"
       marker-end="none"
       id="path41"
       style="stroke:none;stroke-width:0.122812;stroke-linecap:round;stroke-linejoin:round;fill:#b3b3b3" />
    <path
       d="m 37.15984,812.16536 c -6.676554,1.75671 -13.422619,1.14805 -19.347562,-1.30721 0,-0.002 0.0052,0 0,0 -0.31882,-0.13214 -0.635184,-0.26945 -0.948846,-0.41215 -0.177341,2.58814 -0.01253,5.24235 0.531531,7.90663 3.249115,15.91079 18.799574,26.18721 34.710119,22.93834 14.593262,-2.98015 24.446717,-16.30894 23.47159,-30.77178 -0.314645,0.14271 -0.631991,0.28001 -0.951548,0.41216 -5.87017,2.42431 -12.545495,3.03763 -19.164818,1.33202 -3.394279,-0.87467 -6.507072,-2.29045 -9.269115,-4.13115 -2.698672,1.78446 -5.729918,3.16462 -9.031351,4.03314 z"
       fill="#ff4760"
       marker-start="none"
       marker-end="none"
       id="path43"
       style="stroke:none;stroke-width:0.122812;stroke-linecap:round;stroke-linejoin:round;fill:#b3b3b3" />
    <path
       d="m 17.996987,808.79909 c -0.0012,0.009 -2.46e-4,9.8e-4 0,0 1.011971,0.44531 2.051207,0.83242 3.112303,1.15861 4.891357,1.50297 10.246944,1.70512 15.555863,0.30825 2.832291,-0.74497 5.452117,-1.89302 7.814038,-3.36578 -6.244255,-4.8248 -10.399231,-11.94077 -11.526155,-19.75825 -8.220055,4.33453 -13.816108,12.47795 -14.956049,21.65717 z"
       fill="#ffa600"
       marker-start="none"
       marker-end="none"
       id="path45"
       style="stroke:none;stroke-width:0.122812;stroke-linecap:round;stroke-linejoin:round" />
    <path
       d="m 35.508264,775.72924 c -0.729995,2.83328 -1.005831,5.67761 -0.872703,8.45561 -0.32668,0.13411 -0.650167,0.27363 -0.970215,0.4183 l -0.03561,0.0162 c 0.331838,-0.15057 0.667115,-0.29548 1.00583,-0.43451 1.745159,-0.71722 3.582427,-1.28117 5.498541,-1.6727 6.168111,-1.25931 12.283413,-0.55191 17.695003,1.69162 0.144427,-2.84949 -0.141234,-5.76848 -0.905616,-8.67373 -1.720842,-6.53998 -5.58893,-11.94764 -10.648786,-15.66516 -5.13821,3.74798 -9.056896,9.2308 -10.766439,15.86436 z"
       fill="#8ec73f"
       marker-start="none"
       marker-end="none"
       id="path47"
       style="stroke:none;stroke-width:0.122812;stroke-linecap:round;stroke-linejoin:round;fill:#b3b3b3" />
    <path
       d="m 47.279797,758.16221 c 0.242431,0.17587 0.482651,0.35517 0.72017,0.53816 5.135262,3.95652 9.050755,9.57836 10.826617,16.32835 0.886457,3.36898 1.170644,6.7554 0.919125,10.04578 8.091103,4.02848 14.313497,11.6055 16.260559,21.14062 0.119865,0.58631 0.221799,1.17187 0.306293,1.75695 0.05772,0.40012 0.107584,0.8 0.149094,1.19938 7.224295,-3.70524 12.892562,-10.36386 15.07616,-18.83789 4.05206,-15.72534 -5.422397,-31.77737 -21.147496,-35.82943 -8.19672,-2.11212 -16.482357,-0.54921 -23.110522,3.65808 z"
       fill="#008eff"
       marker-start="none"
       marker-end="none"
       id="path49"
       style="stroke:none;stroke-width:0.122812;stroke-linecap:round;stroke-linejoin:round;fill:#b3b3b3" />
  </g>
</svg>
